# Blender 4.0.2
# www.blender.org
mtllib test_world.mtl
o Plane
v -4.000000 0.000000 4.000000
v 4.000000 0.000000 4.000000
v -4.000000 0.000000 -4.000000
v 4.000000 0.000000 -4.000000
v -8.000000 1.000000 8.000000
v 8.000000 1.000000 8.000000
v -8.000000 1.000000 -8.000000
v 8.000000 1.000000 -8.000000
v -12.000000 1.000000 12.000000
v 12.000000 1.000000 12.000000
v -12.000000 1.000000 -12.000000
v 12.000000 1.000000 -12.000000
v 20.000000 3.000000 12.000000
v 20.000000 3.000000 -12.000000
v -12.000000 5.000000 -12.000000
v 12.000000 5.000000 -12.000000
v -12.000000 5.000000 -20.000000
v 12.000000 5.000000 -20.000000
v 24.000000 3.000000 12.000000
v 24.000000 3.000000 -12.000000
v 20.000000 3.000000 -20.000000
v 24.000000 3.000000 -20.000000
vn -0.0000 1.0000 -0.0000
vn -0.0000 0.9701 -0.2425
vn -0.2425 0.9701 -0.0000
vn 0.2425 0.9701 -0.0000
vn -0.0000 0.9701 0.2425
vn -0.0000 -0.0000 1.0000
vt -0.055556 0.611111
vt 0.388889 1.055556
vt -0.055556 1.055556
vt -0.277778 0.388889
vt 0.611111 0.388889
vt 0.388889 0.611111
vt -0.277778 1.277778
vt 0.611111 1.277778
vt 0.833333 1.500000
vt -0.500000 0.166667
vt 0.833333 0.166667
vt -0.500000 1.500000
vt 0.833333 -0.277778
vt 1.500000 0.833333
vt 1.277778 -0.500000
vt 1.500000 -0.500000
vt 1.277778 1.500000
vt -0.500000 -0.277778
vt 0.833333 -0.500000
vt 1.277778 -0.277778
vt 1.277778 0.166667
vt 1.388889 1.277778
vt 1.277778 0.833333
vt -0.500000 -0.500000
vt 1.277778 -0.500000
s 0
usemtl Material.001
f 2/1/1 3/2/1 1/3/1
f 1/3/2 6/4/2 2/1/2
f 2/1/3 8/5/3 4/6/3
f 3/2/4 5/7/4 1/3/4
f 4/6/5 7/8/5 3/2/5
f 8/5/1 11/9/1 7/8/1
f 5/7/1 10/10/1 6/4/1
f 6/4/1 12/11/1 8/5/1
f 7/8/1 9/12/1 5/7/1
f 10/10/3 14/13/3 12/11/3
f 12/14/6 15/15/6 11/16/6
f 16/11/1 17/17/1 15/9/1
f 13/18/1 20/19/1 14/13/1
f 20/19/1 21/20/1 14/13/1
f 14/13/4 18/21/4 16/11/4
f 14/22/6 16/23/6 12/14/6
f 2/1/1 4/6/1 3/2/1
f 1/3/2 5/7/2 6/4/2
f 2/1/3 6/4/3 8/5/3
f 3/2/4 7/8/4 5/7/4
f 4/6/5 8/5/5 7/8/5
f 8/5/1 12/11/1 11/9/1
f 5/7/1 9/12/1 10/10/1
f 6/4/1 10/10/1 12/11/1
f 7/8/1 11/9/1 9/12/1
f 10/10/3 13/18/3 14/13/3
f 12/14/6 16/23/6 15/15/6
f 16/11/1 18/21/1 17/17/1
f 13/18/1 19/24/1 20/19/1
f 20/19/1 22/25/1 21/20/1
f 14/13/4 21/20/4 18/21/4
